<svg xmlns="http://www.w3.org/2000/svg" viewBox="0 0 720 545.5"><defs><style>.cls-1{fill:#547cbe;}</style></defs><title>Asset 6</title><g id="Layer_2" data-name="Layer 2"><g id="Layer_1-2" data-name="Layer 1"><path class="cls-1" d="M222.59,365.5H22.91C10.28,365.5,0,355,0,342.07V197.93C0,185,10.28,174.5,22.91,174.5H222.59c12.63,0,22.91,10.51,22.91,23.43V342.07C245.5,355,235.22,365.5,222.59,365.5ZM22.91,185.5a12.3,12.3,0,0,0-12.15,12.43V342.07A12.3,12.3,0,0,0,22.91,354.5H222.59a12.3,12.3,0,0,0,12.15-12.43V197.93a12.3,12.3,0,0,0-12.15-12.43Z"/><path class="cls-1" d="M689.49,365.5H265a30.71,30.71,0,0,1-30.51-30.85V205.35A30.71,30.71,0,0,1,265,174.5H689.49A30.71,30.71,0,0,1,720,205.35v129.3A30.71,30.71,0,0,1,689.49,365.5ZM265,185.5a19.76,19.76,0,0,0-19.63,19.85v129.3A19.76,19.76,0,0,0,265,354.5H689.49a19.76,19.76,0,0,0,19.63-19.85V205.35a19.76,19.76,0,0,0-19.63-19.85Z"/><path class="cls-1" d="M455,545.5H30.51A30.71,30.71,0,0,1,0,514.65V385.35A30.71,30.71,0,0,1,30.51,354.5H455a30.71,30.71,0,0,1,30.51,30.85v129.3A30.71,30.71,0,0,1,455,545.5ZM30.51,365.5a19.76,19.76,0,0,0-19.63,19.85v129.3A19.76,19.76,0,0,0,30.51,534.5H455a19.76,19.76,0,0,0,19.63-19.85V385.35A19.76,19.76,0,0,0,455,365.5Z"/><path class="cls-1" d="M697.09,545.5H497.41c-12.63,0-22.91-10.51-22.91-23.43V377.93c0-12.92,10.28-23.43,22.91-23.43H697.09C709.72,354.5,720,365,720,377.93V522.07C720,535,709.72,545.5,697.09,545.5Zm-199.68-180a12.3,12.3,0,0,0-12.15,12.43V522.07a12.3,12.3,0,0,0,12.15,12.43H697.09a12.3,12.3,0,0,0,12.15-12.43V377.93a12.3,12.3,0,0,0-12.15-12.43Z"/><path class="cls-1" d="M452.18,77.47a1.11,1.11,0,0,0-2.08,0L443.45,97a1,1,0,0,0,1,1.35h13.33a1.06,1.06,0,0,0,1-1.38Z"/><path class="cls-1" d="M256.45,80h6.8a18.41,18.41,0,0,0,6.47-.91,6.63,6.63,0,0,0,4.65-6.61,5.93,5.93,0,0,0-4.38-6,20.65,20.65,0,0,0-6.74-.82h-6.78a1.07,1.07,0,0,0-1.08,1V79A1,1,0,0,0,256.45,80Z"/><path class="cls-1" d="M272.61,97.08a19.8,19.8,0,0,0-6.75-.86h-9.49a1,1,0,0,0-1.06,1v12.83a1.06,1.06,0,0,0,1.08,1h9.47a17.76,17.76,0,0,0,6.48-1A6.87,6.87,0,0,0,277,103.3,6.12,6.12,0,0,0,272.61,97.08Z"/><path class="cls-1" d="M357.28,64.09a24,24,0,1,0,24.24,24A24.14,24.14,0,0,0,357.28,64.09Z"/><path class="cls-1" d="M545.26,66.68c-2.89-1.21-6.4-1.21-8.71-1.21h-5.68a1,1,0,0,0-1,1v17a1,1,0,0,0,1,1h6.47c2,0,5.37,0,8.14-1.2,4-1.77,4.9-5.57,4.9-8.44C550.38,70.81,548.71,68.13,545.26,66.68Z"/><path class="cls-1" d="M611.6,65.78a1.08,1.08,0,0,0-1.07,1.06v42.68a1.11,1.11,0,0,0,1.12,1.09h1.16c9.17,0,17.37-2.49,21.41-6.5s6-9.36,6-15.88C640,66.51,616.9,65.68,611.6,65.78Z"/><path class="cls-1" d="M689,0H31.05A31,31,0,0,0,0,31.05V149A31,31,0,0,0,31.05,180H689A31,31,0,0,0,720,149V31.05A31,31,0,0,0,689,0ZM133,115.18a44.55,44.55,0,0,1-35,17c-24.44,0-44.31-19.68-44.31-43.87S73.58,44.41,98,44.41a44.16,44.16,0,0,1,20.39,4.91,44.63,44.63,0,0,1,14.14,11.47,1,1,0,0,1-.21,1.45L117.67,72.62a1.1,1.1,0,0,1-1.45-.15A24.11,24.11,0,1,0,98,112.24a24.37,24.37,0,0,0,18.69-8.72,1.07,1.07,0,0,1,1.43-.17l14.64,10.36A1,1,0,0,1,133,115.18Zm81.85-18.47c0,14.22-3.35,20.39-8.75,25.72-6.14,6.07-13.29,9.14-23.32,9.14-4.93,0-16.21-.88-24-9-7.47-7.93-8.72-14.37-8.72-25.81V47.54a1,1,0,0,1,1-1H171a1,1,0,0,1,1,1V96.71c0,3,.17,6.42,1.37,9.23,1.52,3.28,5.24,4.89,9.19,4.89,4.15,0,7.82-1.45,9.08-4.44s1.26-6.63,1.26-9.68V47.54a1,1,0,0,1,1-1h19.88a1,1,0,0,1,1,1ZM290,122.83c-7.95,6.6-13.87,7.22-27.53,7.22H235.75a1.08,1.08,0,0,1-1.1-1.06V47.66a1.05,1.05,0,0,1,1.07-1h30c9,0,16.84,2.06,21.46,5.65h0c4.95,3.64,7.56,9.3,7.56,16.35,0,5.81-3.21,11.49-8.81,15.59a1,1,0,0,0,.19,1.72c7.73,3.53,11.65,9.79,11.65,18.6C297.77,111.91,294.78,118.91,290,122.83Zm67.32,9.1c-24.44,0-44.32-19.68-44.32-43.88s19.88-43.87,44.32-43.87,44.31,19.68,44.31,43.87S381.71,131.93,357.28,131.93Zm135.12-1.78H471.09a1.29,1.29,0,0,1-1.24-.87l-4.5-13.19a1.07,1.07,0,0,0-1-.71H438a1.08,1.08,0,0,0-1,.72l-4.55,13.34a1.06,1.06,0,0,1-1,.71H409.88a1,1,0,0,1-1-1.4l31.71-81.37a1.34,1.34,0,0,1,1.26-.85h18.69a1.19,1.19,0,0,1,1.12.75l31.74,81.47A1,1,0,0,1,492.4,130.15ZM557.62,101l12.44,27.57a1,1,0,0,1-1,1.41H547.52a1,1,0,0,1-.95-.61l-11.29-25a1,1,0,0,0-.95-.6h-3.46a1,1,0,0,0-1,1v23.94a1,1,0,0,1-1,1H508.91a1,1,0,0,1-1-1V47.28a1,1,0,0,1,1-1h26.62c15.39,0,21.34,2.34,26,6.11,6.32,5.18,10,13.26,10,22.17,0,8.64-3.59,17.46-8.93,22A31.51,31.51,0,0,1,558,99.7,1,1,0,0,0,557.62,101Zm97.58,9.89A42.26,42.26,0,0,1,637.83,126c-4.58,2.16-8.53,4-21.47,4H590.58a1,1,0,0,1-1.06-1V47.56a1.06,1.06,0,0,1,1.08-1.05h25.11c11.17,0,16.51,1.62,20.61,3.37a41.78,41.78,0,0,1,25.58,38.4A41.22,41.22,0,0,1,655.2,110.86Z"/></g></g></svg>