<svg xmlns="http://www.w3.org/2000/svg" viewBox="0 0 1280 321.04"><defs><style>.cls-1{fill:#547cbe;}.cls-2{fill:none;}</style></defs><title>CUBOARD_LOGO_CENTERED</title><g id="Layer_2" data-name="Layer 2"><g id="Layer_1-2" data-name="Layer 1"><g id="Layer_1-2-2" data-name="Layer 1-2"><path class="cls-1" d="M559.13,215.11H441.61a13.65,13.65,0,0,1-13.48-13.79V116.49a13.65,13.65,0,0,1,13.48-13.79H559.13a13.65,13.65,0,0,1,13.48,13.79v84.83A13.65,13.65,0,0,1,559.13,215.11ZM441.61,109.17a7.24,7.24,0,0,0-7.15,7.32v84.83a7.23,7.23,0,0,0,7.15,7.31H559.13a7.23,7.23,0,0,0,7.15-7.31V116.49a7.24,7.24,0,0,0-7.15-7.32Z"/><path class="cls-1" d="M833.91,215.11H584.09a18.08,18.08,0,0,1-18-18.16v-76.1a18.08,18.08,0,0,1,18-18.15H833.91a18.07,18.07,0,0,1,18,18.15V197A18.08,18.08,0,0,1,833.91,215.11ZM584.09,109.17a11.63,11.63,0,0,0-11.55,11.68V197a11.62,11.62,0,0,0,11.55,11.68H833.91A11.62,11.62,0,0,0,845.47,197v-76.1a11.63,11.63,0,0,0-11.56-11.68Z"/><path class="cls-1" d="M695.91,321H446.09a18.06,18.06,0,0,1-18-18.15v-76.1a18.08,18.08,0,0,1,18-18.16H695.91a18.08,18.08,0,0,1,18,18.16v76.1A18.07,18.07,0,0,1,695.91,321ZM446.09,215.11a11.63,11.63,0,0,0-11.56,11.68v76.1a11.63,11.63,0,0,0,11.56,11.68H695.91a11.63,11.63,0,0,0,11.55-11.68v-76.1a11.63,11.63,0,0,0-11.55-11.68Z"/><path class="cls-1" d="M838.39,321H720.87a13.65,13.65,0,0,1-13.48-13.79V222.42a13.66,13.66,0,0,1,13.48-13.79H838.39a13.65,13.65,0,0,1,13.48,13.79v84.83A13.65,13.65,0,0,1,838.39,321ZM720.87,215.11a7.24,7.24,0,0,0-7.15,7.31v84.83a7.24,7.24,0,0,0,7.15,7.32H838.39a7.24,7.24,0,0,0,7.15-7.32V222.42a7.24,7.24,0,0,0-7.15-7.31Z"/><path class="cls-1" d="M694.25,45.59a.66.66,0,0,0-.84-.38.65.65,0,0,0-.38.38l-3.92,11.5a.6.6,0,0,0,.35.76.63.63,0,0,0,.24,0h7.85a.61.61,0,0,0,.61-.63.57.57,0,0,0,0-.18Z"/><path class="cls-1" d="M579.06,47.08h4a11,11,0,0,0,3.81-.53,3.9,3.9,0,0,0,2.73-3.89A3.47,3.47,0,0,0,587,39.13a12.13,12.13,0,0,0-4-.49h-4a.64.64,0,0,0-.64.59v7.26a.59.59,0,0,0,.59.59Z"/><path class="cls-1" d="M588.57,57.13a11.87,11.87,0,0,0-4-.5H579a.59.59,0,0,0-.62.55v7.59a.63.63,0,0,0,.63.59h5.58a10.52,10.52,0,0,0,3.81-.59,4,4,0,0,0,2.74-4A3.6,3.6,0,0,0,588.57,57.13Z"/><path class="cls-1" d="M638.4,37.72a14.13,14.13,0,1,0,14.27,14.12A14.12,14.12,0,0,0,638.4,37.72Z"/><path class="cls-1" d="M749,39.24a13.68,13.68,0,0,0-5.13-.71h-3.34a.59.59,0,0,0-.59.59v10a.59.59,0,0,0,.59.59h3.81a12.48,12.48,0,0,0,4.79-.7A5.08,5.08,0,0,0,752,44,4.71,4.71,0,0,0,749,39.24Z"/><path class="cls-1" d="M788.07,38.71a.65.65,0,0,0-.63.63V64.46a.67.67,0,0,0,.66.64h.69c5.39,0,10.22-1.47,12.6-3.83a12.64,12.64,0,0,0,3.53-9.34C804.79,39.14,791.19,38.65,788.07,38.71Z"/><path class="cls-1" d="M833.63,0H446.4a18.24,18.24,0,0,0-18.27,18.21V87.69a18.25,18.25,0,0,0,18.24,18.25H833.63a18.25,18.25,0,0,0,18.24-18.25V18.27A18.24,18.24,0,0,0,833.66,0ZM506.4,67.79A26.12,26.12,0,0,1,459.73,52,26.14,26.14,0,0,1,497.81,29a26.26,26.26,0,0,1,8.32,6.75.59.59,0,0,1-.09.82l0,0-8.62,6.11a.64.64,0,0,1-.85-.09,14.12,14.12,0,1,0,.27,18.27.66.66,0,0,1,.85-.1l8.61,6.1a.58.58,0,0,1,.18.81A.21.21,0,0,1,506.4,67.79Zm48.17-10.87c0,8.37-2,12-5.14,15.13-3.62,3.58-7.83,5.38-13.73,5.38-2.9,0-9.54-.51-14.12-5.29-4.4-4.67-5.14-8.46-5.14-15.19V28a.59.59,0,0,1,.59-.59h11.74a.59.59,0,0,1,.59.59V56.92a14.3,14.3,0,0,0,.8,5.43c.9,1.93,3.09,2.88,5.41,2.88s4.6-.86,5.35-2.62a15,15,0,0,0,.74-5.69V28a.58.58,0,0,1,.59-.59H554a.58.58,0,0,1,.58.59ZM598.8,72.29c-4.68,3.88-8.16,4.25-16.2,4.25H566.88a.63.63,0,0,1-.65-.63h0V28.05a.61.61,0,0,1,.63-.59h17.65c5.3,0,9.91,1.21,12.63,3.33h0c2.92,2.14,4.45,5.47,4.45,9.62,0,3.42-1.89,6.76-5.18,9.17a.6.6,0,0,0-.13.83.75.75,0,0,0,.24.19c4.55,2.07,6.86,5.76,6.86,10.94C603.38,65.86,601.62,70,598.8,72.29Zm39.62,5.35A25.82,25.82,0,1,1,664.5,51.82a26,26,0,0,1-26.08,25.82Zm79.52-1H705.38a.77.77,0,0,1-.73-.51L702,68.32a.64.64,0,0,0-.59-.42h-15.5a.65.65,0,0,0-.59.43l-2.68,7.85a.63.63,0,0,1-.59.42H669.36a.6.6,0,0,1-.64-.54.58.58,0,0,1,0-.29l18.66-47.89a.79.79,0,0,1,.74-.5h11a.72.72,0,0,1,.66.45l18.68,47.94a.59.59,0,0,1-.3.78.58.58,0,0,1-.29,0Zm38.37-17.16,7.32,16.23a.6.6,0,0,1-.3.78.58.58,0,0,1-.29,0H750.36a.62.62,0,0,1-.56-.36l-6.64-14.72a.59.59,0,0,0-.56-.35h-2a.6.6,0,0,0-.59.59V75.75a.59.59,0,0,1-.58.59H727.64a.59.59,0,0,1-.59-.59V27.83a.58.58,0,0,1,.59-.59H743.3c9.06,0,12.56,1.37,15.31,3.59a16.71,16.71,0,0,1,5.88,13.05c0,5.09-2.11,10.28-5.25,12.95a19.94,19.94,0,0,1-2.71,1.85A.58.58,0,0,0,756.31,59.44Zm57.42,5.82a24.71,24.71,0,0,1-10.22,8.89c-2.69,1.28-5,2.36-12.63,2.36H775.7a.59.59,0,0,1-.62-.55V28a.63.63,0,0,1,.63-.62h14.78c6.58,0,9.72,1,12.13,2A24.58,24.58,0,0,1,817.68,52a24.29,24.29,0,0,1-3.95,13.28Z"/></g><rect class="cls-1" x="558.6" y="92.56" width="17.95" height="17.28" rx="7.06"/><rect class="cls-2" y="0.52" width="1280" height="320" rx="11.77"/></g></g></svg>