<?xml version="1.0" encoding="utf-8"?>
<!-- Generator: Adobe Illustrator 18.0.0, SVG Export Plug-In . SVG Version: 6.00 Build 0)  -->
<!DOCTYPE svg PUBLIC "-//W3C//DTD SVG 1.1//EN" "http://www.w3.org/Graphics/SVG/1.1/DTD/svg11.dtd">
<svg version="1.1" id="Layer_2_1_" xmlns="http://www.w3.org/2000/svg" xmlns:xlink="http://www.w3.org/1999/xlink" x="0px" y="0px"
	 viewBox="0 0 20 20" enable-background="new 0 0 841.9 595.3" xml:space="preserve">
	<path fillrule = "evenodd" fill="#474d66" d="M19 0h-5c-.55 0-1 .45-1 1s.45 1 1 1h2.59L11.3 7.29c-.19.18-.3.43-.3.71a1.003 1.003 0 001.71.71L18 3.41V6c0 .55.45 1 1 1s1-.45 1-1V1c0-.55-.45-1-1-1zM8 11c-.28 0-.53.11-.71.29L2 16.59V14c0-.55-.45-1-1-1s-1 .45-1 1v5c0 .55.45 1 1 1h5c.55 0 1-.45 1-1s-.45-1-1-1H3.41l5.29-5.29c.19-.18.3-.43.3-.71 0-.55-.45-1-1-1z"/>
</svg>
