<svg xmlns="http://www.w3.org/2000/svg" viewBox="0 0 1280 322.36"><defs><style>.cls-1{fill:#547cbe;}.cls-2{fill:none;}</style></defs><title>CUPBOARD_LOGO_NEW</title><g id="Layer_2" data-name="Layer 2"><g id="Layer_1-2" data-name="Layer 1"><g id="Layer_1-2-2" data-name="Layer 1-2"><path class="cls-1" d="M559.13,216.43H441.61a13.65,13.65,0,0,1-13.48-13.79V117.81A13.65,13.65,0,0,1,441.61,104H559.13a13.65,13.65,0,0,1,13.48,13.79v84.83A13.65,13.65,0,0,1,559.13,216.43ZM441.61,110.49a7.24,7.24,0,0,0-7.15,7.32v84.83a7.24,7.24,0,0,0,7.15,7.31H559.13a7.24,7.24,0,0,0,7.15-7.31V117.81a7.24,7.24,0,0,0-7.15-7.32Z"/><path class="cls-1" d="M833.91,216.43H584.09a18.08,18.08,0,0,1-18-18.16v-76.1a18.07,18.07,0,0,1,18-18.15H833.91a18.06,18.06,0,0,1,18,18.15v76.1A18.08,18.08,0,0,1,833.91,216.43ZM584.09,110.49a11.63,11.63,0,0,0-11.55,11.68v76.1A11.63,11.63,0,0,0,584.09,210H833.91a11.63,11.63,0,0,0,11.56-11.68v-76.1a11.63,11.63,0,0,0-11.56-11.68Z"/><path class="cls-1" d="M695.91,322.36H446.09a18.07,18.07,0,0,1-18-18.15v-76.1a18.08,18.08,0,0,1,18-18.16H695.91a18.08,18.08,0,0,1,18,18.16v76.1A18.08,18.08,0,0,1,695.91,322.36ZM446.09,216.43a11.62,11.62,0,0,0-11.56,11.68v76.1a11.63,11.63,0,0,0,11.56,11.68H695.91a11.63,11.63,0,0,0,11.55-11.68v-76.1a11.62,11.62,0,0,0-11.55-11.68Z"/><path class="cls-1" d="M838.39,322.36H720.87a13.65,13.65,0,0,1-13.48-13.79V223.74A13.66,13.66,0,0,1,720.87,210H838.39a13.65,13.65,0,0,1,13.48,13.79v84.83A13.65,13.65,0,0,1,838.39,322.36ZM720.87,216.43a7.23,7.23,0,0,0-7.15,7.31v84.83a7.24,7.24,0,0,0,7.15,7.32H838.39a7.24,7.24,0,0,0,7.15-7.32V223.74a7.23,7.23,0,0,0-7.15-7.31Z"/><path class="cls-1" d="M715.86,44.1a40.28,40.28,0,0,1-1.39,5L710.77,60H721l-3.69-10.94A42.94,42.94,0,0,1,715.86,44.1Z"/><path class="cls-1" d="M666.45,38.91c-8.37,0-13.38,5.88-13.38,15.65s5,15.72,13.38,15.72,13.31-6,13.31-15.72S674.74,38.91,666.45,38.91Z"/><path class="cls-1" d="M624.21,44.31c0-3.6-2.16-5.47-6.27-5.47h-9V50h9C622,50,624.21,48,624.21,44.31Z"/><path class="cls-1" d="M570.48,39h-7.12V53.24h7.12c5.43,0,8.15-2.35,8.15-7.13S575.91,39,570.48,39Z"/><path class="cls-1" d="M618.5,59.4H609v11h9.55c4.18,0,6.34-1.87,6.34-5.67C624.84,61.27,622.61,59.4,618.5,59.4Z"/><path class="cls-1" d="M836.73,0H443.27A13.31,13.31,0,0,0,430,13.27V96.73A13.31,13.31,0,0,0,443.27,110H836.73A13.31,13.31,0,0,0,850,96.73V13.27A13.31,13.31,0,0,0,836.73,0ZM467.67,81.08c-15.47,0-25.16-10.18-25.16-26.38,0-16,10.24-26.52,25.65-26.52,12.89,0,22.16,7.34,23.77,18.83H480c-1.53-5.12-5.93-8-12.13-8-8.36,0-13.45,5.88-13.45,15.65,0,9.62,5.16,15.65,13.45,15.65,6.34,0,11-3.12,12.41-8.18H492C490.19,73.53,480.57,81.08,467.67,81.08Zm74-20.08c0,12.18-8.36,20.08-21.33,20.08S499.17,73.25,499.17,61V29h11.29V60.24c0,6.44,3.56,10,9.9,10s10-3.67,10-10V29h11.29ZM573,63.21h-9.62v17H552.07V29H573c10.53,0,17.57,6.85,17.57,17.1S583.51,63.21,573,63.21Zm46.14,17H597.65V29h21.47c10.39,0,16.66,5.4,16.66,14.19,0,5.47-2.51,9.49-7.18,11.5,5.09,1.66,7.81,5.6,7.81,11.42C636.41,75.19,630.28,80.25,619.12,80.25Zm47.19.83c-14.92,0-25.16-10.8-25.16-26.45s10.31-26.52,25.23-26.52,25.3,10.8,25.3,26.45S681.29,81.08,666.31,81.08Zm61.47-.83-3.62-10.81H707.5l-3.69,10.81H692L710.43,29h11l18.33,51.24Zm45.72,0-7.73-17.94h-8.72V80.25H745.76V29H765.7c12.54,0,19.65,6,19.65,16.61,0,6.65-2.85,11.36-8.57,14.27l9.06,20.36Zm40.43,0H793.71V29h19.52c15.13,0,25.65,10.52,25.65,25.76C838.88,69.72,828.63,80.25,813.93,80.25Z"/><path class="cls-1" d="M812.11,39.39H805V69.86h7.8c8.92,0,14.15-5.61,14.15-15.09C827,45.07,821.45,39.39,812.11,39.39Z"/><path class="cls-1" d="M765.7,39h-8.65v13.5h8.58c5,0,7.8-2.49,7.8-6.86S770.72,39,765.7,39Z"/></g><rect class="cls-1" x="558.6" y="93.88" width="17.95" height="17.28" rx="7.06"/><rect class="cls-2" y="1.84" width="1280" height="320" rx="11.77"/></g></g></svg>